<svg xmlns="http://www.w3.org/2000/svg" viewBox="0 0 100 100">
  <defs>
    <linearGradient id="bg" x1="0" y1="0" x2="0" y2="1">
      <stop offset="0%" stop-color="#66BB6A"/>
      <stop offset="100%" stop-color="#2E7D32"/>
    </linearGradient>
  </defs>
  <circle cx="50" cy="50" r="50" fill="url(#bg)"/>
  <!-- Gas cloud -->
  <circle cx="35" cy="42" r="14" fill="#A5D6A7" opacity="0.7"/>
  <circle cx="52" cy="36" r="16" fill="#C8E6C9" opacity="0.8"/>
  <circle cx="65" cy="44" r="12" fill="#A5D6A7" opacity="0.7"/>
  <circle cx="44" cy="50" r="13" fill="#E8F5E9" opacity="0.6"/>
  <circle cx="60" cy="52" r="10" fill="#C8E6C9" opacity="0.5"/>
  <!-- Stink lines -->
  <path d="M30,65 Q35,58 30,52" fill="none" stroke="#81C784" stroke-width="2" stroke-linecap="round"/>
  <path d="M42,68 Q47,60 42,54" fill="none" stroke="#81C784" stroke-width="2" stroke-linecap="round"/>
  <path d="M55,66 Q60,59 55,53" fill="none" stroke="#81C784" stroke-width="2" stroke-linecap="round"/>
  <path d="M67,64 Q72,57 67,51" fill="none" stroke="#81C784" stroke-width="2" stroke-linecap="round"/>
  <!-- Face on cloud -->
  <circle cx="45" cy="40" r="3" fill="#2E7D32"/>
  <circle cx="58" cy="40" r="3" fill="#2E7D32"/>
  <path d="M44,48 Q51,54 58,48" fill="none" stroke="#2E7D32" stroke-width="2.5" stroke-linecap="round"/>
  <!-- Text -->
  <text x="50" y="88" text-anchor="middle" font-family="Arial Black,sans-serif" font-weight="900" font-size="11" fill="white" opacity="0.9">FARTCOIN</text>
</svg>
